# xmcd CD database file
#
# Track frame offsets:
#	150
#	17232
#	37954
#	55884
#	76256
#	94218
#	110931
#	124557
#	142325
#	156547
#	171561
#	190986
#	206702
#	221109
#	238630
#	255249
#	267993
#	284706
#	299934
#	315714
#	330276
#
# Disc length: 4596 seconds
#
# Revision: 1
# Processed by: cddbd v1.5.2PL0 Copyright (c) Steve Scherf et al.
# Submitted via: CDex 1.50beta9
#
DISCID=5611f215
DTITLE=Various Artist - NU COUNTRY TRAXX 128
DYEAR=2009
DGENRE=Country
TTITLE0=Oughta Be More Songs Like That/Montgomery Gentry
TTITLE1=American Saturday Night/Brad Paisley
TTITLE2=Til Summer Comes Around/Keith Urban
TTITLE3=Temporary Home/Carrie Underwood
TTITLE4=Sunshine/Steve Azar
TTITLE5=A Woman Needs/Jessica Harp
TTITLE6=Hip To My Heart/The Band Perry
TTITLE7=Best Of Both Worlds/Darryl Worley
TTITLE8=Dancing In Circles/Love And Theft
TTITLE9=I Love You Man/James House
TTITLE10=There Is A God/Lee Ann Womack
TTITLE11=She Wont Be Lonely Long/Clay Walker
TTITLE12=Somebody Like Me/Jason Crabb
TTITLE13=Gold Digger/Jody Booth
TTITLE14=Look Whos Back In Love/Jonathan Singleton and The Grove
TTITLE15=One More Drinkin' Song/Jerrod Neimann
TTITLE16=Bigger Hands/John Anderson
TTITLE17=Golden/Hello Dave
TTITLE18=Mama's Table/The Oak Ridge Boys
TTITLE19=Rockin The Beer Gut(Holladay Version)/Trailor Choir
TTITLE20=Santa's Got  A New Ride/Codie Prevost
EXTD=YEAR: 2009
EXTT0=
EXTT1=
EXTT2=
EXTT3=
EXTT4=
EXTT5=
EXTT6=
EXTT7=
EXTT8=
EXTT9=
EXTT10=
EXTT11=
EXTT12=
EXTT13=
EXTT14=
EXTT15=
EXTT16=
EXTT17=
EXTT18=
EXTT19=
EXTT20=
PLAYORDER=
